<?xml version="1.0" encoding="utf-8"?>
<!-- Generator: Adobe Illustrator 28.2.0, SVG Export Plug-In . SVG Version: 6.00 Build 0)  -->
<svg version="1.1" id="Layer_1" xmlns="http://www.w3.org/2000/svg" xmlns:xlink="http://www.w3.org/1999/xlink" x="0px" y="0px" width="230px" height="50px"
	 viewBox="0 0 230 50" style="enable-background:new 0 0 230 50;" xml:space="preserve">
<style type="text/css">
	.st0{fill:#E1B45F;}
	.st1{fill:#2B2868;}
</style>
<g>
	<g>
		<path class="st0" d="M144,32.3c0-0.9,0.3-1.7,1-2.3c0.6-0.7,1.4-1,2.4-1c0.9,0,1.7,0.3,2.3,1c0.6,0.7,0.9,1.4,0.9,2.3
			c0,0.8-0.3,1.6-1,2.2c-0.6,0.6-1.4,1-2.4,1c-0.9,0-1.7-0.3-2.3-1C144.4,33.9,144,33.2,144,32.3z"/>
		<path class="st0" d="M162.1,35.6c-1.2,0-2.4-0.2-3.5-0.6c-1.1-0.4-2.1-1-3-1.8c-0.9-0.8-1.6-1.8-2.1-3c-0.5-1.3-0.8-2.7-0.8-4.2
			c0-3.2,1.1-5.9,3.2-8s4.8-3.2,8-3.2c2.2,0,4.4,0.3,6.5,0.9l-1.7,6.5l-0.5,0.1c0-0.5-0.2-1.3-0.6-2.4c-0.5-1.1-1.1-2.1-1.9-3
			c-0.8-1-1.6-1.4-2.4-1.4c-1.1,0-2.1,0.8-2.8,2.3c-0.7,1.5-1.1,3.4-1.1,5.7c0,1.5,0.2,2.9,0.5,4.1c0.3,1.2,0.8,2.1,1.4,2.8
			c0.6,0.7,1.3,1.2,2,1.6c0.7,0.3,1.5,0.5,2.4,0.5c0.8,0,1.6-0.1,2.5-0.4c0.8-0.3,1.5-0.7,2-1.2l0.3,0.5
			C168.1,34.1,165.3,35.6,162.1,35.6z"/>
		<path class="st0" d="M172.2,25.8c0-3.4,1-6.1,3.2-8.1s4.9-3,8.5-3c3.3,0,5.8,0.9,7.6,2.6c1.8,1.7,2.6,4.1,2.6,7.1c0,3.3-1,6-3.1,8
			c-2,2.1-4.9,3.1-8.6,3.1c-3.4,0-5.9-0.9-7.6-2.6S172.2,28.8,172.2,25.8z M179,24.2c0,3.2,0.4,5.8,1.1,7.7c0.8,1.9,1.8,2.9,3.3,2.9
			c0.7,0,1.3-0.3,1.9-0.8c0.5-0.5,1-1.2,1.3-2.1s0.5-1.8,0.7-2.8c0.1-1,0.2-2,0.2-3.1c0-2.1-0.2-3.9-0.5-5.5
			c-0.3-1.6-0.8-2.8-1.5-3.7c-0.7-0.9-1.5-1.4-2.5-1.4c-0.7,0-1.4,0.3-1.9,0.8c-0.5,0.5-1,1.2-1.3,2.1s-0.5,1.8-0.7,2.8
			C179,22.1,179,23.2,179,24.2z"/>
		<path class="st0" d="M207.3,17.6c-1.1,0-2.3,0.6-3.6,1.8v15.7h-6.1V23.3c0-2.4-0.1-4.8-0.3-7.2l6-1.4l0.4,4
			c1.1-1.2,2.3-2.1,3.4-2.8c1.1-0.7,2.3-1.1,3.6-1.1c1.2,0,2.3,0.4,3.3,1.1c1,0.7,1.7,1.7,2.1,3.1c1.2-1.3,2.4-2.3,3.5-3
			c1.2-0.7,2.4-1.1,3.8-1.1c1.7,0,3,0.6,4.1,1.8c1.1,1.2,1.6,2.9,1.6,5v13.5h-6V21.6c0-1.3-0.3-2.3-0.9-3c-0.6-0.7-1.3-1-2.2-1
			c-1.2,0-2.5,0.6-3.8,1.9c0.2,0.9,0.3,1.6,0.3,2.1v13.5h-6.1V21.6c0-1.3-0.3-2.3-0.9-2.9C208.9,18,208.2,17.6,207.3,17.6z"/>
	</g>
	<path class="st1" d="M20.4,23.2c0-1.1,0-2.3-0.1-3.4c-0.1-2.3,1.4-4.3,3.6-4.8l2.5-0.6v14.4c0,3.3-2.7,6-6,6L20.4,23.2L20.4,23.2z"
		/>
	<path class="st1" d="M53.8,20.9c0.5-1.4,1.3-2.6,2.4-3.5s2.2-1.7,3.7-2.2c1.5-0.5,3-0.8,4.8-0.8c1.6,0,3.1,0.2,4.4,0.7
		c1.3,0.5,2.4,1.1,3.2,2c0.9,0.9,1.5,1.9,2,3.1c0.4,1.2,0.7,2.5,0.7,4c0,1.6-0.3,3.1-0.8,4.4c-0.5,1.4-1.3,2.5-2.2,3.6
		c-1,1-2.2,1.8-3.7,2.4c-1.5,0.6-3.1,0.8-5,0.8c-1.7,0-3.2-0.2-4.4-0.7c-1.3-0.5-2.4-1.1-3.2-2c-0.9-0.9-1.5-1.9-1.9-3.1
		c-0.4-1.2-0.6-2.5-0.6-4C53,23.8,53.2,22.2,53.8,20.9 M60.1,29.3c0.3,1.7,0.8,3,1.5,3.8c0.7,0.9,1.5,1.3,2.4,1.3
		c0.9,0,1.6-0.4,2.2-1.2c0.6-0.8,1-1.8,1.4-3.2c0.3-1.4,0.5-2.8,0.5-4.4c0-2.3-0.2-4.3-0.6-5.9c-0.4-1.6-0.9-2.8-1.5-3.6
		c-0.6-0.8-1.4-1.2-2.3-1.2c-0.9,0-1.6,0.4-2.2,1.2c-0.6,0.8-1.1,1.9-1.4,3.2c-0.3,1.4-0.5,2.8-0.5,4.4
		C59.7,25.8,59.8,27.6,60.1,29.3"/>
	<path class="st1" d="M85.3,14.4l-0.1,6.7c1-2.5,1.9-4.2,2.8-5.2c0.9-0.9,1.9-1.4,2.9-1.4c0.9,0,1.6,0.1,2.1,0.4v5
		c-1.8-1.6-6.5-0.7-7.8,2.3v6.6c0,3.4-2.7,6.1-6.1,6.1V23.1c0-1.2,0-2.3-0.1-3.4c-0.1-2.2,1.4-4.2,3.6-4.7L85.3,14.4z"/>
	<path class="st1" d="M119.2,35.2h-7.8l-6.7-10.6c1.9-1.6,3.1-2.9,3.7-3.8c1.6-2.1,2.4-4.4,2.7-6.8h6.7c-3.2,5-6.2,8-7.7,8.5
		C110.8,23.2,115.8,30.4,119.2,35.2"/>
	<path class="st1" d="M97.5,35.2L97.5,35.2c3.6,0,6.5-2.9,6.5-6.5V3l-2.7,0.6c-2.3,0.5-3.9,2.6-3.8,5c0.1,1.6,0.1,3.1,0.1,4.7
		L97.5,35.2L97.5,35.2z"/>
	<path class="st1" d="M140.9,32c-0.1,0.1-0.3,0.1-0.5,0.2c-0.2,0.1-0.4,0.1-0.5,0.1c-0.9,0-1.3-0.7-1.3-2v-9.8c0-1.4-0.3-2.6-1-3.6
		c-0.6-1-1.6-1.7-2.8-2c-1.2-0.4-2.5-0.6-3.9-0.6c-1.5,0-3,0.2-4.7,0.6c-1.6,0.4-3.2,0.9-4.5,1.5l0,5.6h0.6c0.4-1.3,3-7,7.5-7
		c0.7,0,1.4,0.4,1.9,1.2c0.5,0.8,0.8,1.8,0.8,3v4c-3.1,0.5-5.5,1.1-7.1,1.9c-1.6,0.7-2.8,1.5-3.5,2.4s-1,1.8-1,2.8
		c0,1,0.3,1.9,0.9,2.7c0.6,0.8,1.3,1.4,2,1.7c0.8,0.3,1.5,0.5,2.2,0.5c1,0,2-0.3,3.1-0.8c1.1-0.5,2.2-1.5,3.4-2.8
		c0.1,1.1,0.5,2,1.1,2.6c0.6,0.6,1.5,1,2.6,1c1,0,1.9-0.3,2.8-0.8c0.9-0.5,1.5-1.1,2.1-1.9L140.9,32z M132.7,30.7
		c-0.4,0.5-0.9,0.8-1.5,1.1c-0.6,0.3-1.1,0.4-1.5,0.4c-0.7,0-1.3-0.3-1.8-1c-0.5-0.6-0.7-1.5-0.7-2.6c0-1.4,0.5-2.5,1.4-3.2
		c0.9-0.7,2.3-1.3,4.1-1.5L132.7,30.7L132.7,30.7z"/>
	<path class="st1" d="M49.2,22.3c0-2.3,0.1-5,0.3-8.2l-3.4,1c-1.9-0.6-3.6-0.9-5.3-0.9c-1.5,0-2.9,0.3-4.2,0.9
		c-1.3,0.6-2.5,1.4-3.4,2.4c-1,1-1.7,2.3-2.3,3.7c-0.5,1.4-0.8,3-0.8,4.6c0,1.4,0.2,2.7,0.6,3.8c0.4,1.2,0.9,2.1,1.6,2.9
		c0.7,0.8,1.4,1.4,2.3,1.8c0.9,0.4,1.7,0.6,2.6,0.6c2,0,4.2-1.1,6.5-3.4L43.4,38c0.8-0.2,4.3-1.8,5.8-3.9c0-0.7,0-3.9,0-4.7
		L49.2,22.3L49.2,22.3z M43.6,31c-0.3,0.4-0.8,0.7-1.4,0.9s-1.1,0.3-1.7,0.3c-1.4,0-2.5-0.7-3.3-2.1c-0.8-1.4-1.1-3.3-1.1-5.8
		c0-1.6,0.2-3.1,0.6-4.6c0.4-1.5,0.9-2.6,1.6-3.5c0.7-0.9,1.4-1.3,2.3-1.3c0.6,0,1.1,0.2,1.7,0.6c0.6,0.4,1,0.9,1.4,1.5L43.6,31
		L43.6,31z"/>
	<path class="st1" d="M33.2,47c0,0,3-0.9,5.6-1.9c3.6-1.4,3.6-3.8,4.3-6.9c-3.8,1.7-5.2,2.1-6.1,2.5C32.7,42.2,33.2,47,33.2,47"/>
	<path class="st0" d="M20.4,14c0,0,3.2-1,5.9-2c3.8-1.5,3.8-4,4.5-7.3c-4,1.8-5.5,2.2-6.5,2.6C19.9,8.9,20.4,14,20.4,14"/>
	<path class="st1" d="M7.8,35.4c-1.4,0-2.6-0.2-3.7-0.5c-1.1-0.3-2.1-0.7-3-1.2l0-5h0.4L3,31.3c0.6,1.1,1.3,2,2,2.5s1.7,0.8,2.8,0.8
		c1.3,0,2.4-0.3,3.3-0.9c0.8-0.6,1.2-1.4,1.2-2.4c0-0.9-0.3-1.7-0.9-2.3s-1.7-1.1-3.3-1.6l-1.8-0.5c-1.7-0.5-3-1.3-4-2.4
		c-1-1.1-1.5-2.4-1.5-3.9c0-1.8,0.7-3.4,2.2-4.7C4.5,14.6,6.6,14,9.4,14c1.1,0,2.1,0.1,3.1,0.4c1,0.2,1.9,0.6,2.8,1.1L15,20h-0.4
		l-1.5-2.6c-0.5-0.9-1.1-1.6-1.6-2c-0.5-0.4-1.3-0.6-2.3-0.6c-1,0-1.8,0.3-2.7,0.8S5.2,17,5.2,17.9c0,1,0.4,1.7,1.1,2.3
		s1.8,1.1,3.2,1.6l1.9,0.5c2,0.6,3.4,1.5,4.3,2.5s1.3,2.4,1.3,3.9c0,2-0.8,3.7-2.4,4.9C13,34.8,10.7,35.4,7.8,35.4"/>
</g>
</svg>
